<svg width="263" height="500" fill="none" xmlns="http://www.w3.org/2000/svg"><path fill="#EDF3F8" d="M0 0h263v500H0z"/><g clip-path="url(#a)"><path fill="#EDF3F8" d="M-705-1793H735v3066H-705z"/><g filter="url(#b)"><path fill-rule="evenodd" clip-rule="evenodd" d="M338.776.57h191.233c18.341 0 33.208 14.235 33.208 31.795v435.27c0 17.56-14.867 31.796-33.208 31.796H338.776c-18.34 0-33.208-14.236-33.208-31.796V32.365c0-17.56 14.868-31.796 33.208-31.796Z" fill="#213648"/></g><g filter="url(#c)"><path fill-rule="evenodd" clip-rule="evenodd" d="M35.776.57H227.01c18.341 0 33.208 14.235 33.208 31.795v435.27c0 17.56-14.867 31.796-33.208 31.796H35.776c-18.34 0-33.208-14.236-33.208-31.796V32.365C2.568 14.805 17.436.569 35.776.569Z" fill="#213648"/></g><path opacity=".596" fill-rule="evenodd" clip-rule="evenodd" d="M227.749 0H34.923C25.92.549 17.617 4.657 10.015 12.324c4.89-4.268 13.61-9.98 25.14-9.98h192.362c11.529 0 20.25 5.712 25.14 9.98C245.054 4.657 236.751.549 227.749 0Z" fill="url(#d)" fill-opacity=".65"/><path opacity=".75" fill-rule="evenodd" clip-rule="evenodd" d="M254.999 462.671V34.981c0-11.475-4.217-15.717-6.733-18.44-2.516-2.725-2.623-4.114.992-2.057s10.845 8.046 10.845 20.498V462.67c0 12.451-7.23 18.441-10.845 20.498-3.615 2.056-3.508.667-.992-2.057s6.733-6.966 6.733-18.441Z" fill="url(#e)"/><path opacity=".75" fill-rule="evenodd" clip-rule="evenodd" d="M7.672 462.671V34.981c0-11.475 4.217-15.717 6.733-18.44 2.516-2.725 2.623-4.114-.992-2.057S2.568 22.53 2.568 34.982V462.67c0 12.451 7.23 18.441 10.845 20.498 3.615 2.056 3.508.667.992-2.057s-6.733-6.966-6.733-18.441Z" fill="url(#f)"/><path fill-rule="evenodd" clip-rule="evenodd" d="M0 103.557a2 2 0 0 1 2-2h.965a2 2 0 0 1 2 2v60.35a2 2 0 0 1-2 2H2a2 2 0 0 1-2-2v-60.35ZM257.535 156.043a2 2 0 0 1 2-2h.965a2 2 0 0 1 2 2v42.95a2 2 0 0 1-2 2h-.965a2 2 0 0 1-2-2v-42.95Z" fill="#2E423C"/><path fill-rule="evenodd" clip-rule="evenodd" d="M108.676 12.444H34.27c-11.105 0-19.196 7.564-19.196 17.442v422.39c0 12.88 12.502 24.291 26.64 24.291h179.332c13.618 0 26.64-11.5 26.64-24.291V31.028c0-11.84-8.79-18.513-19.196-18.584h-75.586c-.286.047-5.479 2.182-7.673 7.564-2.195 5.381-6.61 9.671-11.444 9.671h-5.615c-2.298 0-8.348-2.23-11.412-9.671-3.063-7.442-7.797-7.517-8.084-7.563Z" fill="#EDF3F8"/><mask id="g" style="mask-type:alpha" maskUnits="userSpaceOnUse" x="15" y="12" width="233" height="465"><path fill-rule="evenodd" clip-rule="evenodd" d="M108.676 12.444H34.27c-11.105 0-19.196 7.564-19.196 17.442v422.39c0 12.88 12.502 24.291 26.64 24.291h179.332c13.618 0 26.64-11.5 26.64-24.291V31.028c0-11.84-8.79-18.513-19.196-18.584h-75.586c-.286.047-5.479 2.182-7.673 7.564-2.195 5.381-6.61 9.671-11.444 9.671h-5.615c-2.298 0-8.348-2.23-11.412-9.671-3.063-7.442-7.797-7.517-8.084-7.563Z" fill="#fff"/></mask><g mask="url(#g)"><g filter="url(#h)"><rect x="30" y="173" width="204" height="40" rx="5" fill="#FBFCFE"/></g><text opacity=".7" fill="#36536B" xml:space="preserve" style="white-space:pre" font-family="Public Sans" font-size="10" letter-spacing="-.077"><tspan x="46" y="196.625">Item #001</tspan></text><text fill="#36536B" xml:space="preserve" style="white-space:pre" font-family="Public Sans" font-size="13" font-weight="bold" letter-spacing="-.1"><tspan x="192.53" y="197.212">$29</tspan></text><g filter="url(#i)"><rect x="30" y="221" width="204" height="40" rx="5" fill="#FBFCFE"/></g><text opacity=".7" fill="#36536B" xml:space="preserve" style="white-space:pre" font-family="Public Sans" font-size="10" letter-spacing="-.077"><tspan x="46" y="244.625">Item #002</tspan></text><text fill="#36536B" xml:space="preserve" style="white-space:pre" font-family="Public Sans" font-size="13" font-weight="bold" letter-spacing="-.1"><tspan x="186.739" y="245.212">$105</tspan></text><g filter="url(#j)"><rect x="30" y="269" width="204" height="40" rx="5" fill="#FBFCFE"/></g><text opacity=".7" fill="#36536B" xml:space="preserve" style="white-space:pre" font-family="Public Sans" font-size="10" letter-spacing="-.077"><tspan x="46" y="292.625">Item #003</tspan></text><text fill="#36536B" xml:space="preserve" style="white-space:pre" font-family="Public Sans" font-size="13" font-weight="bold" letter-spacing="-.1"><tspan x="186.79" y="293.212">$810</tspan></text><g filter="url(#k)"><rect x="30" y="317" width="204" height="40" rx="5" fill="#FBFCFE"/></g><text opacity=".7" fill="#36536B" xml:space="preserve" style="white-space:pre" font-family="Public Sans" font-size="10" letter-spacing="-.077"><tspan x="46" y="340.625">Item #004</tspan></text><text fill="#36536B" xml:space="preserve" style="white-space:pre" font-family="Public Sans" font-size="13" font-weight="bold" letter-spacing="-.1"><tspan x="178.6" y="341.212">$1044</tspan></text><g filter="url(#l)"><rect x="30" y="365" width="204" height="40" rx="5" fill="#FBFCFE"/></g><text opacity=".7" fill="#36536B" xml:space="preserve" style="white-space:pre" font-family="Public Sans" font-size="10" letter-spacing="-.077"><tspan x="46" y="388.625">Item #005</tspan></text><text fill="#36536B" xml:space="preserve" style="white-space:pre" font-family="Public Sans" font-size="13" font-weight="bold" letter-spacing="-.1"><tspan x="192.441" y="389.212">$40</tspan></text><g filter="url(#m)"><rect x="30" y="413" width="204" height="40" rx="5" fill="#FBFCFE"/></g><text opacity=".7" fill="#36536B" xml:space="preserve" style="white-space:pre" font-family="Public Sans" font-size="10" letter-spacing="-.077"><tspan x="46" y="436.625">Item #006</tspan></text><text fill="#36536B" xml:space="preserve" style="white-space:pre" font-family="Public Sans" font-size="13" font-weight="bold" letter-spacing="-.1"><tspan x="175.401" y="437.212">$2566</tspan></text><g filter="url(#n)"><rect x="30" y="461" width="204" height="40" rx="5" fill="#FBFCFE"/></g><text fill="#36536B" xml:space="preserve" style="white-space:pre" font-family="Public Sans" font-size="13" font-weight="bold" letter-spacing="-.1"><tspan x="178.359" y="485.212">$4199</tspan></text><path fill="#36536B" d="M15.074 12.444h233v114h-233z"/></g><g clip-path="url(#o)"><g filter="url(#p)"><rect x="30" y="93" width="204" height="56" rx="5" fill="#FBFCFE"/></g><text opacity=".7" fill="#36536B" xml:space="preserve" style="white-space:pre" font-family="Public Sans" font-size="10" letter-spacing="-.077"><tspan x="46.468" y="124.625">Total payment</tspan></text><text fill="#BA4270" xml:space="preserve" style="white-space:pre" font-family="Public Sans" font-size="20" font-weight="bold" letter-spacing="-.154"><tspan x="153.186" y="128.25">$9204</tspan></text></g><path fill-rule="evenodd" clip-rule="evenodd" d="M174.047 51.425v-2.081h-.768v2.081h.768Zm-53.124 16.007V62.48h.04c.35.513.798.9 1.344 1.163a4.07 4.07 0 0 0 1.789.394c.768 0 1.438-.149 2.011-.445a4.258 4.258 0 0 0 1.434-1.192 5.135 5.135 0 0 0 .859-1.718c.189-.647.283-1.32.283-2.021a7.93 7.93 0 0 0-.283-2.133 5.19 5.19 0 0 0-.869-1.788 4.372 4.372 0 0 0-1.475-1.233c-.593-.31-1.3-.465-2.122-.465-.647 0-1.24.128-1.779.384-.539.256-.983.667-1.334 1.233h-.04v-1.334h-2.728v14.107h2.87Zm2.405-5.538c-.459 0-.849-.094-1.173-.283a2.28 2.28 0 0 1-.778-.737 3.181 3.181 0 0 1-.424-1.061 5.778 5.778 0 0 1-.132-1.233c0-.431.041-.849.122-1.253.081-.404.219-.761.414-1.071.195-.31.451-.563.768-.758.317-.196.711-.293 1.182-.293.458 0 .846.097 1.162.293.317.195.576.451.779.768.202.316.347.677.434 1.081.088.404.131.815.131 1.233 0 .418-.04.828-.121 1.233a3.05 3.05 0 0 1-.414 1.06 2.293 2.293 0 0 1-.768.738c-.317.19-.711.283-1.182.283Zm11.93 1.86a6.492 6.492 0 0 1-1.9.283 5.13 5.13 0 0 1-1.394-.182 3.192 3.192 0 0 1-1.132-.566 2.639 2.639 0 0 1-.758-.97c-.182-.39-.273-.856-.273-1.395 0-.593.105-1.081.313-1.465.209-.384.479-.69.809-.92.33-.229.707-.4 1.132-.515.424-.114.852-.205 1.283-.273.431-.067.856-.121 1.273-.161.418-.04.788-.102 1.112-.182.323-.081.579-.2.768-.354.188-.155.276-.38.263-.677 0-.31-.051-.556-.152-.738a1.117 1.117 0 0 0-.404-.424 1.597 1.597 0 0 0-.586-.202 4.808 4.808 0 0 0-.718-.05c-.566 0-1.01.12-1.334.363-.323.242-.512.647-.566 1.213h-2.869c.04-.674.208-1.233.505-1.678a3.428 3.428 0 0 1 1.132-1.071c.458-.27.973-.462 1.546-.576a8.775 8.775 0 0 1 1.728-.172c.525 0 1.057.037 1.596.111a4.89 4.89 0 0 1 1.476.435 2.91 2.91 0 0 1 1.091.9c.283.383.424.892.424 1.525v5.437c0 .471.027.923.081 1.354.054.431.149.754.283.97h-2.91a4.156 4.156 0 0 1-.202-1.01 3.74 3.74 0 0 1-1.617.99Zm-.829-1.617c-.229 0-.451-.02-.667-.06a1.616 1.616 0 0 1-.565-.213 1.08 1.08 0 0 1-.384-.414 1.342 1.342 0 0 1-.142-.647c0-.27.047-.492.142-.667a1.29 1.29 0 0 1 .373-.434c.155-.115.337-.206.546-.273.209-.068.421-.122.637-.162.229-.04.458-.074.687-.101.229-.027.448-.06.657-.101.209-.04.404-.091.586-.152.182-.06.333-.144.455-.252v1.07c0 .163-.017.378-.051.648-.034.27-.125.535-.273.798-.148.263-.377.488-.687.677-.31.189-.748.283-1.314.283Zm11.122 4.75c-.552.363-1.32.545-2.304.545-.296 0-.589-.01-.879-.03a41.7 41.7 0 0 1-.879-.071v-2.365l.829.081c.283.027.566.034.849.02.377-.04.656-.188.838-.444.182-.256.273-.54.273-.849 0-.23-.04-.445-.121-.647l-3.658-9.802h3.052l2.364 7.155h.041l2.283-7.155h2.971l-4.365 11.742c-.31.85-.741 1.456-1.294 1.82Zm9.506-2.87c.498 0 .956-.061 1.374-.182.418-.122.791-.29 1.122-.506.33-.215.609-.461.838-.737.229-.277.404-.57.526-.88h.04v.546c0 .216.017.414.051.596.033.182.097.34.192.475a.967.967 0 0 0 .414.324c.182.08.428.121.738.121.215 0 .424-.027.626-.08v-.648c-.242.04-.431.061-.566.061-.175 0-.31-.037-.404-.111a.606.606 0 0 1-.202-.293 1.515 1.515 0 0 1-.071-.404c-.006-.149-.01-.297-.01-.445v-6.043c0-.795-.286-1.438-.859-1.93-.572-.492-1.485-.738-2.738-.738s-2.22.287-2.901.86c-.68.572-1.047 1.43-1.101 2.576h.768c.054-.93.367-1.624.94-2.082.572-.458 1.324-.687 2.253-.687.526 0 .97.054 1.334.162.364.108.66.256.889.444.229.19.398.405.506.647.107.243.161.505.161.788 0 .364-.02.667-.06.91a1.043 1.043 0 0 1-.303.596c-.162.155-.401.276-.718.364-.317.088-.751.152-1.303.192l-1.193.101c-.418.04-.852.108-1.303.202a3.935 3.935 0 0 0-1.233.475 2.76 2.76 0 0 0-.92.91c-.242.383-.364.879-.364 1.485 0 .997.303 1.735.91 2.213.606.478 1.462.717 2.567.717Zm-1.981-1.223c.485.37 1.152.556 2.001.556.876 0 1.569-.159 2.081-.475.512-.317.903-.68 1.173-1.092.269-.41.441-.808.515-1.192.074-.384.111-.644.111-.778v-1.94c-.188.229-.475.384-.859.464-.384.081-.812.142-1.283.182l-1.294.122c-.377.04-.754.097-1.131.171a3.285 3.285 0 0 0-1.021.374 2.093 2.093 0 0 0-.738.718c-.188.303-.283.697-.283 1.182 0 .768.243 1.337.728 1.708Zm9.889 4.699V61.61h.04c.31.85.802 1.462 1.476 1.84.674.377 1.442.565 2.304.565.795 0 1.485-.134 2.071-.404a3.946 3.946 0 0 0 1.456-1.121c.384-.479.67-1.048.859-1.708.188-.66.282-1.388.282-2.183 0-.727-.094-1.421-.282-2.082a5.127 5.127 0 0 0-.859-1.738 4.196 4.196 0 0 0-1.456-1.192c-.586-.297-1.276-.445-2.071-.445-.566 0-1.068.088-1.506.263a4.037 4.037 0 0 0-1.122.657c-.309.263-.559.549-.747.859-.189.31-.324.593-.405.849h-.04v-2.385h-.768v14.107h.768Zm1.991-4.538c.492.263 1.101.395 1.829.395.674 0 1.256-.128 1.748-.384s.896-.6 1.213-1.031c.316-.431.552-.933.707-1.506a6.974 6.974 0 0 0 .232-1.829c0-.593-.074-1.175-.222-1.748a4.815 4.815 0 0 0-.687-1.536 3.536 3.536 0 0 0-1.203-1.092c-.491-.276-1.088-.414-1.788-.414-.687 0-1.273.135-1.758.404-.486.27-.88.627-1.183 1.072a4.525 4.525 0 0 0-.657 1.525 7.826 7.826 0 0 0-.202 1.79c0 .619.061 1.215.182 1.788.121.572.327 1.078.617 1.515.289.438.68.789 1.172 1.051Zm8.323-9.57h.768v10.389h-.768V53.386Z" fill="#fff"/><circle cx="101.09" cy="49.158" r="1.895" transform="rotate(45 101.09 49.158)" fill="#fff"/><circle cx="105.556" cy="53.624" r="1.895" transform="rotate(45 105.556 53.624)" fill="#fff"/><circle cx="110.022" cy="58.09" r="1.895" transform="rotate(45 110.022 58.09)" fill="#fff"/><circle cx="96.624" cy="53.624" r="1.895" transform="rotate(45 96.624 53.624)" fill="#fff"/><circle opacity=".5" cx="101.09" cy="58.09" r="1.895" transform="rotate(45 101.09 58.09)" fill="#fff"/><circle opacity=".5" cx="105.556" cy="62.556" r="1.895" transform="rotate(45 105.556 62.556)" fill="#fff"/><circle cx="92.158" cy="58.09" r="1.895" transform="rotate(45 92.158 58.09)" fill="#fff"/><circle opacity=".5" cx="96.624" cy="62.556" r="1.895" transform="rotate(45 96.624 62.556)" fill="#fff"/><circle opacity=".25" cx="101.09" cy="67.022" r="1.895" transform="rotate(45 101.09 67.022)" fill="#fff"/></g><defs><filter id="b" x="250.568" y="-54.431" width="417.649" height="658.861" filterUnits="userSpaceOnUse" color-interpolation-filters="sRGB"><feFlood flood-opacity="0" result="BackgroundImageFix"/><feColorMatrix in="SourceAlpha" values="0 0 0 0 0 0 0 0 0 0 0 0 0 0 0 0 0 0 127 0" result="hardAlpha"/><feOffset dx="25" dy="25"/><feGaussianBlur stdDeviation="40"/><feColorMatrix values="0 0 0 0 0.212302 0 0 0 0 0.32521 0 0 0 0 0.419299 0 0 0 0.300727 0"/><feBlend in2="BackgroundImageFix" result="effect1_dropShadow_0_1"/><feBlend in="SourceGraphic" in2="effect1_dropShadow_0_1" result="shape"/></filter><filter id="c" x="-52.432" y="-54.431" width="417.65" height="658.861" filterUnits="userSpaceOnUse" color-interpolation-filters="sRGB"><feFlood flood-opacity="0" result="BackgroundImageFix"/><feColorMatrix in="SourceAlpha" values="0 0 0 0 0 0 0 0 0 0 0 0 0 0 0 0 0 0 127 0" result="hardAlpha"/><feOffset dx="25" dy="25"/><feGaussianBlur stdDeviation="40"/><feColorMatrix values="0 0 0 0 0.212302 0 0 0 0 0.32521 0 0 0 0 0.419299 0 0 0 0.300727 0"/><feBlend in2="BackgroundImageFix" result="effect1_dropShadow_0_1"/><feBlend in="SourceGraphic" in2="effect1_dropShadow_0_1" result="shape"/></filter><filter id="h" x="25" y="168" width="234" height="70" filterUnits="userSpaceOnUse" color-interpolation-filters="sRGB"><feFlood flood-opacity="0" result="BackgroundImageFix"/><feColorMatrix in="SourceAlpha" values="0 0 0 0 0 0 0 0 0 0 0 0 0 0 0 0 0 0 127 0" result="hardAlpha"/><feMorphology radius="10" in="SourceAlpha" result="effect1_dropShadow_0_1"/><feOffset dx="10" dy="10"/><feGaussianBlur stdDeviation="12.5"/><feColorMatrix values="0 0 0 0 0.212302 0 0 0 0 0.32521 0 0 0 0 0.419299 0 0 0 0.25 0"/><feBlend in2="BackgroundImageFix" result="effect1_dropShadow_0_1"/><feBlend in="SourceGraphic" in2="effect1_dropShadow_0_1" result="shape"/></filter><filter id="i" x="25" y="216" width="234" height="70" filterUnits="userSpaceOnUse" color-interpolation-filters="sRGB"><feFlood flood-opacity="0" result="BackgroundImageFix"/><feColorMatrix in="SourceAlpha" values="0 0 0 0 0 0 0 0 0 0 0 0 0 0 0 0 0 0 127 0" result="hardAlpha"/><feMorphology radius="10" in="SourceAlpha" result="effect1_dropShadow_0_1"/><feOffset dx="10" dy="10"/><feGaussianBlur stdDeviation="12.5"/><feColorMatrix values="0 0 0 0 0.212302 0 0 0 0 0.32521 0 0 0 0 0.419299 0 0 0 0.25 0"/><feBlend in2="BackgroundImageFix" result="effect1_dropShadow_0_1"/><feBlend in="SourceGraphic" in2="effect1_dropShadow_0_1" result="shape"/></filter><filter id="j" x="25" y="264" width="234" height="70" filterUnits="userSpaceOnUse" color-interpolation-filters="sRGB"><feFlood flood-opacity="0" result="BackgroundImageFix"/><feColorMatrix in="SourceAlpha" values="0 0 0 0 0 0 0 0 0 0 0 0 0 0 0 0 0 0 127 0" result="hardAlpha"/><feMorphology radius="10" in="SourceAlpha" result="effect1_dropShadow_0_1"/><feOffset dx="10" dy="10"/><feGaussianBlur stdDeviation="12.5"/><feColorMatrix values="0 0 0 0 0.212302 0 0 0 0 0.32521 0 0 0 0 0.419299 0 0 0 0.25 0"/><feBlend in2="BackgroundImageFix" result="effect1_dropShadow_0_1"/><feBlend in="SourceGraphic" in2="effect1_dropShadow_0_1" result="shape"/></filter><filter id="k" x="25" y="312" width="234" height="70" filterUnits="userSpaceOnUse" color-interpolation-filters="sRGB"><feFlood flood-opacity="0" result="BackgroundImageFix"/><feColorMatrix in="SourceAlpha" values="0 0 0 0 0 0 0 0 0 0 0 0 0 0 0 0 0 0 127 0" result="hardAlpha"/><feMorphology radius="10" in="SourceAlpha" result="effect1_dropShadow_0_1"/><feOffset dx="10" dy="10"/><feGaussianBlur stdDeviation="12.5"/><feColorMatrix values="0 0 0 0 0.212302 0 0 0 0 0.32521 0 0 0 0 0.419299 0 0 0 0.25 0"/><feBlend in2="BackgroundImageFix" result="effect1_dropShadow_0_1"/><feBlend in="SourceGraphic" in2="effect1_dropShadow_0_1" result="shape"/></filter><filter id="l" x="25" y="360" width="234" height="70" filterUnits="userSpaceOnUse" color-interpolation-filters="sRGB"><feFlood flood-opacity="0" result="BackgroundImageFix"/><feColorMatrix in="SourceAlpha" values="0 0 0 0 0 0 0 0 0 0 0 0 0 0 0 0 0 0 127 0" result="hardAlpha"/><feMorphology radius="10" in="SourceAlpha" result="effect1_dropShadow_0_1"/><feOffset dx="10" dy="10"/><feGaussianBlur stdDeviation="12.5"/><feColorMatrix values="0 0 0 0 0.212302 0 0 0 0 0.32521 0 0 0 0 0.419299 0 0 0 0.25 0"/><feBlend in2="BackgroundImageFix" result="effect1_dropShadow_0_1"/><feBlend in="SourceGraphic" in2="effect1_dropShadow_0_1" result="shape"/></filter><filter id="m" x="25" y="408" width="234" height="70" filterUnits="userSpaceOnUse" color-interpolation-filters="sRGB"><feFlood flood-opacity="0" result="BackgroundImageFix"/><feColorMatrix in="SourceAlpha" values="0 0 0 0 0 0 0 0 0 0 0 0 0 0 0 0 0 0 127 0" result="hardAlpha"/><feMorphology radius="10" in="SourceAlpha" result="effect1_dropShadow_0_1"/><feOffset dx="10" dy="10"/><feGaussianBlur stdDeviation="12.5"/><feColorMatrix values="0 0 0 0 0.212302 0 0 0 0 0.32521 0 0 0 0 0.419299 0 0 0 0.25 0"/><feBlend in2="BackgroundImageFix" result="effect1_dropShadow_0_1"/><feBlend in="SourceGraphic" in2="effect1_dropShadow_0_1" result="shape"/></filter><filter id="n" x="25" y="456" width="234" height="70" filterUnits="userSpaceOnUse" color-interpolation-filters="sRGB"><feFlood flood-opacity="0" result="BackgroundImageFix"/><feColorMatrix in="SourceAlpha" values="0 0 0 0 0 0 0 0 0 0 0 0 0 0 0 0 0 0 127 0" result="hardAlpha"/><feMorphology radius="10" in="SourceAlpha" result="effect1_dropShadow_0_1"/><feOffset dx="10" dy="10"/><feGaussianBlur stdDeviation="12.5"/><feColorMatrix values="0 0 0 0 0.212302 0 0 0 0 0.32521 0 0 0 0 0.419299 0 0 0 0.25 0"/><feBlend in2="BackgroundImageFix" result="effect1_dropShadow_0_1"/><feBlend in="SourceGraphic" in2="effect1_dropShadow_0_1" result="shape"/></filter><filter id="p" x="25" y="88" width="234" height="86" filterUnits="userSpaceOnUse" color-interpolation-filters="sRGB"><feFlood flood-opacity="0" result="BackgroundImageFix"/><feColorMatrix in="SourceAlpha" values="0 0 0 0 0 0 0 0 0 0 0 0 0 0 0 0 0 0 127 0" result="hardAlpha"/><feMorphology radius="10" in="SourceAlpha" result="effect1_dropShadow_0_1"/><feOffset dx="10" dy="10"/><feGaussianBlur stdDeviation="12.5"/><feColorMatrix values="0 0 0 0 0.212302 0 0 0 0 0.32521 0 0 0 0 0.419299 0 0 0 0.25 0"/><feBlend in2="BackgroundImageFix" result="effect1_dropShadow_0_1"/><feBlend in="SourceGraphic" in2="effect1_dropShadow_0_1" result="shape"/></filter><linearGradient id="d" x1="10.015" y1="0" x2="10.015" y2="12.324" gradientUnits="userSpaceOnUse"><stop stop-color="#454545"/><stop offset=".226" stop-color="#999"/><stop offset="1" stop-color="#fff"/></linearGradient><linearGradient id="e" x1="260.103" y1="85.747" x2="250.642" y2="85.747" gradientUnits="userSpaceOnUse"><stop stop-color="#fff" stop-opacity=".01"/><stop offset=".222" stop-color="#BABABA"/><stop offset=".547" stop-color="#fff" stop-opacity=".01"/><stop offset="1" stop-color="#fff" stop-opacity=".01"/></linearGradient><linearGradient id="f" x1="2.568" y1="85.487" x2="12.044" y2="85.487" gradientUnits="userSpaceOnUse"><stop stop-color="#fff" stop-opacity=".01"/><stop offset=".222" stop-color="#BABABA"/><stop offset=".547" stop-color="#fff" stop-opacity=".01"/><stop offset="1" stop-color="#fff" stop-opacity=".01"/></linearGradient><clipPath id="a"><path fill="#fff" transform="translate(-705 -1793)" d="M0 0h1440v3066H0z"/></clipPath><clipPath id="o"><path fill="#fff" transform="translate(30 93)" d="M0 0h204v56H0z"/></clipPath></defs></svg>