<svg width="263" height="500" fill="none" xmlns="http://www.w3.org/2000/svg"><path fill="#EDF3F8" d="M0 0h263v500H0z"/><g clip-path="url(#a)"><path fill="#EDF3F8" d="M-1008-1793H432v3066h-1440z"/><g opacity=".15"><circle cx="432" cy="250" r="390" fill="#36536B"/><circle cx="432" cy="250" r="390" fill="#36536B"/><mask id="b" style="mask-type:alpha" maskUnits="userSpaceOnUse" x="42" y="-140" width="780" height="780"><circle cx="432" cy="250" r="390" fill="#fff"/></mask></g><g filter="url(#c)"><path fill-rule="evenodd" clip-rule="evenodd" d="M35.776.57h191.233c18.341 0 33.208 14.235 33.208 31.795v435.27c0 17.56-14.867 31.796-33.208 31.796H35.776c-18.34 0-33.208-14.236-33.208-31.796V32.365C2.568 14.805 17.436.569 35.776.569Z" fill="#213648"/></g><path opacity=".596" fill-rule="evenodd" clip-rule="evenodd" d="M227.749 0H34.923C25.92.549 17.617 4.657 10.015 12.324c4.89-4.268 13.61-9.98 25.14-9.98h192.362c11.529 0 20.25 5.712 25.139 9.98C245.054 4.657 236.751.549 227.749 0Z" fill="url(#d)" fill-opacity=".65"/><path opacity=".75" fill-rule="evenodd" clip-rule="evenodd" d="M254.999 462.671V34.981c0-11.475-4.217-15.717-6.733-18.44-2.516-2.725-2.623-4.114.992-2.057s10.845 8.046 10.845 20.498V462.67c0 12.451-7.23 18.441-10.845 20.498-3.615 2.056-3.508.667-.992-2.057s6.733-6.966 6.733-18.441Z" fill="url(#e)"/><path opacity=".75" fill-rule="evenodd" clip-rule="evenodd" d="M7.672 462.671V34.981c0-11.475 4.217-15.717 6.733-18.44 2.516-2.725 2.623-4.114-.992-2.057S2.568 22.53 2.568 34.982V462.67c0 12.451 7.23 18.441 10.845 20.498 3.615 2.056 3.508.667.992-2.057s-6.733-6.966-6.733-18.441Z" fill="url(#f)"/><path fill-rule="evenodd" clip-rule="evenodd" d="M0 103.557a2 2 0 0 1 2-2h.965a2 2 0 0 1 2 2v60.35a2 2 0 0 1-2 2H2a2 2 0 0 1-2-2v-60.35ZM257.535 156.043a2 2 0 0 1 2-2h.965a2 2 0 0 1 2 2v42.95a2 2 0 0 1-2 2h-.965a2 2 0 0 1-2-2v-42.95Z" fill="#2E423C"/><path fill-rule="evenodd" clip-rule="evenodd" d="M108.676 12.444H34.27c-11.105 0-19.196 7.564-19.196 17.442v422.39c0 12.88 12.502 24.291 26.64 24.291h179.332c13.618 0 26.64-11.5 26.64-24.291V31.028c0-11.84-8.79-18.513-19.196-18.584h-75.586c-.286.047-5.479 2.182-7.673 7.564-2.195 5.381-6.61 9.671-11.444 9.671h-5.615c-2.298 0-8.348-2.23-11.412-9.671-3.063-7.442-7.797-7.517-8.084-7.563Z" fill="#36536B"/><mask id="g" style="mask-type:alpha" maskUnits="userSpaceOnUse" x="15" y="12" width="233" height="465"><path fill-rule="evenodd" clip-rule="evenodd" d="M108.676 12.444H34.27c-11.105 0-19.196 7.564-19.196 17.442v422.39c0 12.88 12.502 24.291 26.64 24.291h179.332c13.618 0 26.64-11.5 26.64-24.291V31.028c0-11.84-8.79-18.513-19.196-18.584h-75.586c-.286.047-5.479 2.182-7.673 7.564-2.195 5.381-6.61 9.671-11.444 9.671h-5.615c-2.298 0-8.348-2.23-11.412-9.671-3.063-7.442-7.797-7.517-8.084-7.563Z" fill="#fff"/></mask><g filter="url(#h)"><rect x="43" y="142" width="176" height="191" rx="5" fill="#FBFCFE"/></g><text fill="#36536B" xml:space="preserve" style="white-space:pre" font-family="Public Sans" font-size="13" font-weight="bold" letter-spacing="-.1"><tspan x="145.515" y="259.712">$9204</tspan></text><text fill="#36536B" xml:space="preserve" style="white-space:pre" font-family="Public Sans" font-size="13" letter-spacing="-.1"><tspan x="75.356" y="259.712">Payment of </tspan><tspan x="81.011" y="277.712">is completed and </tspan><tspan x="62.028" y="295.713">processed successfully</tspan></text><circle opacity=".25" cx="130" cy="206" r="28" fill="#BA4270"/><path d="m121 207.696 4.577 4.577L138.85 199" stroke="#BA4270" stroke-width="3"/><rect x="66" y="318" width="131" height="30" rx="15" fill="#BA4270"/><text fill="#FBFCFE" xml:space="preserve" style="white-space:pre" font-family="Public Sans" font-size="11" font-weight="bold" letter-spacing="-.085"><tspan x="111.683" y="337.488">Dismiss</tspan></text><g filter="url(#i)"><path fill-rule="evenodd" clip-rule="evenodd" d="M-267.224.57h191.233c18.34 0 33.208 14.235 33.208 31.795v435.27c0 17.56-14.867 31.796-33.208 31.796h-191.233c-18.34 0-33.208-14.236-33.208-31.796V32.365c0-17.56 14.868-31.796 33.208-31.796Z" fill="#213648"/></g></g><defs><linearGradient id="d" x1="10.015" y1="0" x2="10.015" y2="12.324" gradientUnits="userSpaceOnUse"><stop stop-color="#454545"/><stop offset=".226" stop-color="#999"/><stop offset="1" stop-color="#fff"/></linearGradient><linearGradient id="e" x1="260.103" y1="85.747" x2="250.642" y2="85.747" gradientUnits="userSpaceOnUse"><stop stop-color="#fff" stop-opacity=".01"/><stop offset=".222" stop-color="#BABABA"/><stop offset=".547" stop-color="#fff" stop-opacity=".01"/><stop offset="1" stop-color="#fff" stop-opacity=".01"/></linearGradient><linearGradient id="f" x1="2.568" y1="85.487" x2="12.044" y2="85.487" gradientUnits="userSpaceOnUse"><stop stop-color="#fff" stop-opacity=".01"/><stop offset=".222" stop-color="#BABABA"/><stop offset=".547" stop-color="#fff" stop-opacity=".01"/><stop offset="1" stop-color="#fff" stop-opacity=".01"/></linearGradient><filter id="c" x="-52.432" y="-54.431" width="417.649" height="658.861" filterUnits="userSpaceOnUse" color-interpolation-filters="sRGB"><feFlood flood-opacity="0" result="BackgroundImageFix"/><feColorMatrix in="SourceAlpha" values="0 0 0 0 0 0 0 0 0 0 0 0 0 0 0 0 0 0 127 0" result="hardAlpha"/><feOffset dx="25" dy="25"/><feGaussianBlur stdDeviation="40"/><feColorMatrix values="0 0 0 0 0.212302 0 0 0 0 0.32521 0 0 0 0 0.419299 0 0 0 0.300727 0"/><feBlend in2="BackgroundImageFix" result="effect1_dropShadow_0_1"/><feBlend in="SourceGraphic" in2="effect1_dropShadow_0_1" result="shape"/></filter><filter id="h" x="38" y="137" width="206" height="221" filterUnits="userSpaceOnUse" color-interpolation-filters="sRGB"><feFlood flood-opacity="0" result="BackgroundImageFix"/><feColorMatrix in="SourceAlpha" values="0 0 0 0 0 0 0 0 0 0 0 0 0 0 0 0 0 0 127 0" result="hardAlpha"/><feMorphology radius="10" in="SourceAlpha" result="effect1_dropShadow_0_1"/><feOffset dx="10" dy="10"/><feGaussianBlur stdDeviation="12.5"/><feColorMatrix values="0 0 0 0 0.212302 0 0 0 0 0.32521 0 0 0 0 0.419299 0 0 0 0.25 0"/><feBlend in2="BackgroundImageFix" result="effect1_dropShadow_0_1"/><feBlend in="SourceGraphic" in2="effect1_dropShadow_0_1" result="shape"/></filter><filter id="i" x="-355.432" y="-54.431" width="417.65" height="658.861" filterUnits="userSpaceOnUse" color-interpolation-filters="sRGB"><feFlood flood-opacity="0" result="BackgroundImageFix"/><feColorMatrix in="SourceAlpha" values="0 0 0 0 0 0 0 0 0 0 0 0 0 0 0 0 0 0 127 0" result="hardAlpha"/><feOffset dx="25" dy="25"/><feGaussianBlur stdDeviation="40"/><feColorMatrix values="0 0 0 0 0.212302 0 0 0 0 0.32521 0 0 0 0 0.419299 0 0 0 0.300727 0"/><feBlend in2="BackgroundImageFix" result="effect1_dropShadow_0_1"/><feBlend in="SourceGraphic" in2="effect1_dropShadow_0_1" result="shape"/></filter><clipPath id="a"><path fill="#fff" transform="translate(-1008 -1793)" d="M0 0h1440v3066H0z"/></clipPath></defs></svg>